<svg xmlns="http://www.w3.org/2000/svg" version="1.1" xmlns:xlink="http://www.w3.org/1999/xlink" xmlns:svgjs="http://svgjs.dev/svgjs" width="1500" height="1500" viewBox="0 0 1500 1500"><rect width="1500" height="1500" fill="#ffffff"></rect><g transform="matrix(0.6666666666666666,0,0,0.6666666666666666,249.39393939393938,661.9522680022721)"><svg viewBox="0 0 396 70" data-background-color="#ffffff" preserveAspectRatio="xMidYMid meet" height="265" width="1500" xmlns="http://www.w3.org/2000/svg" xmlns:xlink="http://www.w3.org/1999/xlink"><g id="tight-bounds" transform="matrix(1,0,0,1,0.2400000000000091,-0.11316279335309787)"><svg viewBox="0 0 395.52 70.22632558670621" height="70.22632558670621" width="395.52"><g><svg viewBox="0 0 529.9751478380672 94.0994318490566" height="70.22632558670621" width="395.52"><g><rect width="8.443765049514022" height="94.0994318490566" x="103.9072858002966" y="0" fill="#000000" opacity="1" stroke-width="0" stroke="transparent" fill-opacity="1" class="rect-yte-0" data-fill-palette-color="primary" rx="1%" id="yte-0" data-palette-color="#6855ff"></rect></g><g transform="matrix(1,0,0,1,134.45514783806723,0.23407818867924135)"><svg viewBox="0 0 395.52 93.63127547169812" height="93.63127547169812" width="395.52"><g id="textblocktransform"><svg viewBox="0 0 395.52 93.63127547169812" height="93.63127547169812" width="395.52" id="textblock"><g><svg viewBox="0 0 395.52 93.63127547169812" height="93.63127547169812" width="395.52"><g transform="matrix(1,0,0,1,0,0)"><svg width="395.52" viewBox="4.6 -37.1 198.74 47.050000000000004" height="93.63127547169812" data-palette-color="#6855ff"><path d="M4.6-35L18.55-35Q25.15-35 28.78-31.88 32.4-28.75 32.4-23.1L32.4-23.1Q32.4-17.2 28.78-13.93 25.15-10.65 18.55-10.65L18.55-10.65 7.9-10.65 10.5-13.25 10.5 0 4.6 0 4.6-35ZM7.9-15.7L18.3-15.7Q22.35-15.7 24.55-17.48 26.75-19.25 26.75-22.95L26.75-22.95Q26.75-26.5 24.55-28.23 22.35-29.95 18.3-29.95L18.3-29.95 7.9-29.95 10.5-32.55 10.5-13.1 7.9-15.7ZM60.45-26.55L48.35 3.75Q47.1 6.8 44.9 8.38 42.7 9.95 39.7 9.95L39.7 9.95Q37.9 9.95 36.42 9.4 34.95 8.85 33.55 7.75L33.55 7.75 36 3.5Q37.8 4.8 39.45 4.8L39.45 4.8Q40.75 4.8 41.8 4.05 42.85 3.3 43.5 1.75L43.5 1.75 44.4-0.35 33.4-26.55 39.35-26.55 47.3-6.05 54.7-26.55 60.45-26.55ZM93.59-29.95L90.15-25.9Q88.25-28 85.65-29.2 83.05-30.4 80.4-30.4L80.4-30.4Q77.8-30.4 75.52-29.43 73.25-28.45 71.52-26.7 69.8-24.95 68.85-22.63 67.9-20.3 67.9-17.6L67.9-17.6Q67.9-14.95 68.85-12.63 69.8-10.3 71.52-8.55 73.25-6.8 75.52-5.8 77.8-4.8 80.4-4.8L80.4-4.8Q83.05-4.8 85.6-5.93 88.15-7.05 90.15-9L90.15-9 93.65-5.35Q91.9-3.6 89.67-2.3 87.45-1 85.02-0.3 82.6 0.4 80.1 0.4L80.1 0.4Q76.25 0.4 72.95-0.98 69.65-2.35 67.17-4.8 64.7-7.25 63.3-10.53 61.9-13.8 61.9-17.55L61.9-17.55Q61.9-21.3 63.3-24.53 64.7-27.75 67.22-30.2 69.75-32.65 73.07-34 76.4-35.35 80.3-35.35L80.3-35.35Q82.8-35.35 85.2-34.7 87.6-34.05 89.75-32.85 91.9-31.65 93.59-29.95L93.59-29.95ZM119.29 0L119.29-15Q119.29-18.1 117.59-19.88 115.89-21.65 112.89-21.65L112.89-21.65Q109.34-21.6 107.32-19.15 105.29-16.7 105.29-13.05L105.29-13.05 103.69-13.05Q103.69-18 105.09-21 106.49-24 109.07-25.38 111.64-26.75 115.14-26.75L115.14-26.75Q118.24-26.75 120.47-25.5 122.69-24.25 123.87-21.98 125.04-19.7 125.04-16.5L125.04-16.5 125.04 0 119.29 0ZM99.54 0L99.54-37.1 105.29-37.1 105.29 0 99.54 0ZM134.89-15.2L151.14-15.2Q151.04-17.45 150.12-19.03 149.19-20.6 147.54-21.48 145.89-22.35 143.74-22.35L143.74-22.35Q141.34-22.35 139.56-21.25 137.79-20.15 136.79-18.18 135.79-16.2 135.79-13.55L135.79-13.55Q135.79-10.7 136.87-8.6 137.94-6.5 139.87-5.35 141.79-4.2 144.29-4.2L144.29-4.2Q148.74-4.2 151.79-7.35L151.79-7.35 154.84-4.3Q152.89-2.15 150.09-0.98 147.29 0.2 143.84 0.2L143.84 0.2Q139.74 0.2 136.69-1.5 133.64-3.2 131.94-6.23 130.24-9.25 130.24-13.25L130.24-13.25Q130.24-17.25 131.94-20.28 133.64-23.3 136.69-25 139.74-26.7 143.69-26.75L143.69-26.75Q148.39-26.75 151.24-24.83 154.09-22.9 155.29-19.4 156.49-15.9 156.14-11.1L156.14-11.1 134.89-11.1 134.89-15.2ZM179.39-24.15L177.29-20.1Q175.54-21.15 173.46-21.78 171.39-22.4 169.64-22.4L169.64-22.4Q167.94-22.4 166.84-21.75 165.74-21.1 165.74-19.6L165.74-19.6Q165.74-18.35 166.76-17.63 167.79-16.9 169.39-16.4 170.99-15.9 172.79-15.35 174.59-14.8 176.21-13.93 177.84-13.05 178.84-11.55 179.84-10.05 179.84-7.6L179.84-7.6Q179.84-4.9 178.41-3.18 176.99-1.45 174.66-0.63 172.34 0.2 169.64 0.2L169.64 0.2Q166.74 0.2 163.84-0.75 160.94-1.7 158.94-3.5L158.94-3.5 160.99-7.4Q162.74-5.85 165.24-4.98 167.74-4.1 169.89-4.1L169.89-4.1Q171.14-4.1 172.11-4.42 173.09-4.75 173.66-5.4 174.24-6.05 174.24-7.1L174.24-7.1Q174.24-8.5 173.24-9.3 172.24-10.1 170.64-10.63 169.04-11.15 167.24-11.68 165.44-12.2 163.86-13.05 162.29-13.9 161.29-15.35 160.29-16.8 160.29-19.2L160.29-19.2Q160.29-21.9 161.69-23.58 163.09-25.25 165.31-26.03 167.54-26.8 170.09-26.8L170.09-26.8Q172.59-26.8 175.09-26.1 177.59-25.4 179.39-24.15L179.39-24.15ZM202.89-24.15L200.79-20.1Q199.04-21.15 196.96-21.78 194.89-22.4 193.14-22.4L193.14-22.4Q191.44-22.4 190.34-21.75 189.24-21.1 189.24-19.6L189.24-19.6Q189.24-18.35 190.26-17.63 191.29-16.9 192.89-16.4 194.49-15.9 196.29-15.35 198.09-14.8 199.71-13.93 201.34-13.05 202.34-11.55 203.34-10.05 203.34-7.6L203.34-7.6Q203.34-4.9 201.91-3.18 200.49-1.45 198.16-0.63 195.84 0.2 193.14 0.2L193.14 0.2Q190.24 0.2 187.34-0.75 184.44-1.7 182.44-3.5L182.44-3.5 184.49-7.4Q186.24-5.85 188.74-4.98 191.24-4.1 193.39-4.1L193.39-4.1Q194.64-4.1 195.61-4.42 196.59-4.75 197.16-5.4 197.74-6.05 197.74-7.1L197.74-7.1Q197.74-8.5 196.74-9.3 195.74-10.1 194.14-10.63 192.54-11.15 190.74-11.68 188.94-12.2 187.36-13.05 185.79-13.9 184.79-15.35 183.79-16.8 183.79-19.2L183.79-19.2Q183.79-21.9 185.19-23.58 186.59-25.25 188.81-26.03 191.04-26.8 193.59-26.8L193.59-26.8Q196.09-26.8 198.59-26.1 201.09-25.4 202.89-24.15L202.89-24.15Z" opacity="1" transform="matrix(1,0,0,1,0,0)" fill="#000000" class="wordmark-text-0" data-fill-palette-color="primary" id="text-0"></path></svg></g></svg></g></svg></g></svg></g><g transform="matrix(1,0,0,1,0,0.23407818867924135)"><svg viewBox="0 0 81.80318881204 93.63127547169812" height="93.63127547169812" width="81.80318881204"><g><svg xmlns="http://www.w3.org/2000/svg" xmlns:xlink="http://www.w3.org/1999/xlink" version="1.1" x="0" y="0" viewBox="10.89 5.235 78.22001203599663 89.53000000000002" enable-background="new 0 0 100 100" xml:space="preserve" height="93.63127547169812" width="81.80318881204" class="icon-icon-0" data-fill-palette-color="accent" id="icon-0"><path fill="#000000" d="M62.264 50" data-fill-palette-color="accent"></path><path fill="#000000" d="M62.264 50" data-fill-palette-color="accent"></path><path fill="#000000" d="M61.352 50" data-fill-palette-color="accent"></path><path fill="#000000" d="M61.352 50" data-fill-palette-color="accent"></path><path fill="#000000" d="M78.599 50" data-fill-palette-color="accent"></path><path fill="#000000" d="M78.599 50" data-fill-palette-color="accent"></path><path fill="#000000" d="M79.513 50" data-fill-palette-color="accent"></path><path fill="#000000" d="M79.513 50" data-fill-palette-color="accent"></path><g fill="#6855ff" data-fill-palette-color="accent"><path fill="#000000" d="M67.473 13.482C68.868 13.482 70.108 14.073 70.908 14.989 71.731 14.07 72.988 13.482 74.397 13.482 75.897 13.482 77.221 14.15 78.038 15.172A7.9 7.9 0 0 0 71.997 10.795 2.815 2.815 0 0 0 73.756 8.188 2.815 2.815 0 0 0 68.125 8.188C68.125 9.37 68.854 10.378 69.887 10.796A7.9 7.9 0 0 0 63.759 15.352C64.525 14.232 65.899 13.482 67.473 13.482" data-fill-palette-color="accent"></path><path fill="#000000" d="M84.034 85.895H83.84L78.277 38.316H79.261A1.375 1.375 0 1 0 79.261 35.565H78.545L78.649 35.302C78.724 35.111 82.592 23.762 83.878 19.985A3.322 3.322 0 0 0 80.907 15.184 3.32 3.32 0 0 0 77.617 18.065H77.552A3.32 3.32 0 0 0 74.262 15.184 3.32 3.32 0 0 0 70.977 18.038L70.903 18.037A3.32 3.32 0 0 0 67.618 15.183 3.32 3.32 0 0 0 64.337 18.01H64.3L64.25 17.986A3.32 3.32 0 1 0 57.757 19.327C57.798 19.627 57.866 19.951 57.972 20.307L63.5 35.564H62.926A1.376 1.376 0 1 0 62.926 38.315H63.912L58.348 85.894H58.147S53.079 85.504 53.079 91.742V94.627H89.104V91.742S89.492 85.895 84.034 85.895" data-fill-palette-color="accent"></path><polygon fill="#000000" points="27.247,15.063 31.113,15.063 31.113,12.083 34.093,12.083 34.093,8.216 31.113,8.216 31.113,5.235    27.247,5.235 27.247,8.216 24.265,8.216 24.265,12.083 27.247,12.083  " data-fill-palette-color="accent"></polygon><path fill="#000000" d="M45.953 86.964C45.032 85.98 43.743 85.482 42.121 85.482H41.893L36.361 38.178H37.347A1.375 1.375 0 1 0 37.347 35.427H36.8L36.829 35.352C36.913 35.143 40.56 25.394 40.725 24.945 40.758 24.838 41.489 22.282 40.158 20.5 39.362 19.438 38.032 18.898 36.204 18.898H35.102C35.163 18.744 35.2 18.577 35.2 18.401 35.2 17.642 34.584 17.025 33.823 17.025H24.535C23.776 17.025 23.16 17.642 23.16 18.401 23.16 18.577 23.196 18.744 23.257 18.898H22.232C22.12 18.898 19.462 18.919 18.129 20.7 17.334 21.763 17.192 23.191 17.72 24.977L21.592 35.427H21.012A1.375 1.375 0 0 0 21.012 38.178H21.999L16.466 85.483H16.254S16.184 85.477 16.06 85.477C15.197 85.477 10.89 85.772 10.89 91.605V94.765H47.464L47.463 91.623C47.471 91.507 47.635 88.761 45.953 86.964" data-fill-palette-color="accent"></path></g></svg></g></svg></g></svg></g><defs></defs></svg><rect width="395.52" height="70.22632558670621" fill="none" stroke="none" visibility="hidden"></rect></g></svg></g></svg>